# xmcd
#
# Track frame offsets: 
#        150
#        13860
#        31970
#        47242
#        60617
#        73582
#        84962
#        98952
#        113535
#        125287
#        140172
#        154167
#
# Disc length: 2253 seconds
#
# Revision: 2
# Processed by: cddbd v1.4PL0 Copyright (c) Steve Scherf et al.
# Submitted via: ExactAudioCopy v0.90b3
#
DISCID=9e08cb0c
DTITLE=Larry Gatlin and The Gatlin Brothers - Moments To Remember
DYEAR=1900
DGENRE=Country
TTITLE0=Moments To Remember
TTITLE1=Paper Doll
TTITLE2=Sentimental Me
TTITLE3=Sincerely
TTITLE4=Cab Driver
TTITLE5=Smoke Ges In Your Eyes
TTITLE6=Three Coins In The Fountain
TTITLE7=Tumbling Tumbleweeds
TTITLE8=You, You, You
TTITLE9=No Not Much
TTITLE10=The Great Pretender
TTITLE11=May You Always
EXTD=
EXTT0=
EXTT1=
EXTT2=
EXTT3=
EXTT4=
EXTT5=
EXTT6=
EXTT7=
EXTT8=
EXTT9=
EXTT10=
EXTT11=
PLAYORDER=
